.
 
http://www.scenetime.com    -  Hottest private tracker on the net. !!!

New release on http://www.scenetime.com

        Seed back for speed


...................................NFO:.................................................








































          
          
              
              
                    
                    
                    
                    

Creature.2011.DVDSCR.XviD-SiC

Poster:
[img]http://img402.imageshack.us/img402/5900/affichecreature20111.jpg[/img]

IMDB Link: 
http://www.imdb.com/title/tt1686018/

Description:
In the back country of Louisiana, a group of friends unearth a terrible secret that unleashes a monster from the depths of the swamp.  

MediaInfo:
General
Complete name                    : Creature.2011.DVDSCR.XviD-SiC.avi
Format                           : AVI
Format/Info                      : Audio Video Interleave
File size                        : 1.08 GiB
Duration                         : 1h 33mn
Overall bit rate                 : 1 659 Kbps

Video
ID                               : 0
Format                           : MPEG-4 Visual
Format profile                   : Advanced Simple@L5
Format settings, BVOP            : 1
Format settings, QPel            : No
Format settings, GMC             : No warppoints
Format settings, Matrix          : Default (H.263)
Codec ID                         : XVID
Codec ID/Hint                    : XviD
Duration                         : 1h 33mn
Bit rate                         : 1 460 Kbps
Width                            : 720 pixels
Height                           : 400 pixels
Display aspect ratio             : 16:9
Frame rate                       : 23.976 fps
Color space                      : YUV
Chroma subsampling               : 4:2:0
Bit depth                        : 8 bits
Scan type                        : Progressive
Compression mode                 : Lossy
Bits/(Pixel*Frame)               : 0.211
Stream size                      : 971 MiB (88%)
Writing library                  : XviD 1.2.1 (UTC 2008-12-04)

Audio
ID                               : 1
Format                           : AC-3
Format/Info                      : Audio Coding 3
Mode extension                   : CM (complete main)
Codec ID                         : 2000
Duration                         : 1h 33mn
Bit rate mode                    : Constant
Bit rate                         : 192 Kbps
Channel(s)                       : 2 channels
Channel positions                : Front: L R
Sampling rate                    : 48.0 KHz
Bit depth                        : 16 bits
Compression mode                 : Lossy
Stream size                      : 128 MiB (12%)
Alignment                        : Aligned on interleaves
Interleave, duration             : 64 ms (1.53 video frames)
Interleave, preload duration     : 192 ms
Title                            : VTS_01_1 T80 2_0ch 192Kbps DELAY 0ms

Screenshots:
[img]http://img571.imageshack.us/img571/1702/vlcsnap2011090809h53m13.png[/img]
[img]http://img651.imageshack.us/img651/8198/vlcsnap2011090809h53m50.png[/img]
[img]http://img24.imageshack.us/img24/8687/vlcsnap2011090809h54m23.png[/img]
[img]http://img845.imageshack.us/img845/2200/vlcsnap2011090809h54m36.png[/img]
[img]http://img713.imageshack.us/img713/6647/vlcsnap2011090809h55m04.png[/img]


Note : "Property of" nag pops up from time to time, as you can see from the screenshot above. It only lasts for a fraction of a second. Titties and gore to ensue. 

Source: Our own

Enjoy!

Respects to CaptainHomey, Cyanide, CM8, Rx, THC, ELEKTRI4KA, 
Killerhz, PA, YeFsTe, BoxSlots, MrRep and everyone in the struggle...